<svg xmlns="http://www.w3.org/2000/svg"
width="860" height="440" viewBox="0 0 860 440"
font-family="ui-monospace, SFMono-Regular, Menlo, Consolas, monospace">
<defs>
  <linearGradient id="bg" x1="0" y1="0" x2="0" y2="1">
    <stop offset="0" stop-color="#111722"/>
    <stop offset="1" stop-color="#0d1117"/>
  </linearGradient>
</defs>
<rect width="860" height="440" rx="12" fill="url(#bg)"/>
<rect x=".5" y=".5" width="859" height="439" rx="12"
      fill="none" stroke="#30363d"/>
<line x1="0" y1="30" x2="860" y2="30" stroke="#30363d"/>
<circle cx="20" cy="15" r="5" fill="#ff5f56"/>
<circle cx="36" cy="15" r="5" fill="#ffbd2e"/>
<circle cx="52" cy="15" r="5" fill="#27c93f"/>
<text x="430" y="19" fill="#7d8590" font-size="12" text-anchor="middle">
  ninja1029@github: ~$ streak --activity
</text>

<text x="20" y="60" fill="#3fb950" font-size="14" font-weight="700">ninja1029</text>
<text x="102" y="60" fill="#7d8590" font-size="14">@</text>
<text x="112" y="60" fill="#22d3ee" font-size="14" font-weight="700">github</text>
<line x1="170" y1="56" x2="840" y2="56" stroke="#30363d" stroke-opacity=".8"/>

<text x="20" y="88" fill="#58a6ff" font-size="12.5" font-weight="700">— Streak</text>
<line x1="78" y1="84" x2="840" y2="84" stroke="#30363d" stroke-opacity=".8"/>

<text x="20" y="112" fill="#ffa657" font-size="12.5" font-weight="700">Current</text>
<text x="112" y="112" fill="#c9d1d9" font-size="12.5">57 days</text>

<text x="20" y="134" fill="#ffa657" font-size="12.5" font-weight="700">Longest</text>
<text x="112" y="134" fill="#c9d1d9" font-size="12.5">57 days</text>

<text x="20" y="156" fill="#ffa657" font-size="12.5" font-weight="700">Active</text>
<text x="112" y="156" fill="#c9d1d9" font-size="12.5">81 days this year</text>

<rect x="270" y="101" width="180" height="13" rx="2" fill="#21262d"/>
<rect x="270" y="101" width="180" height="13" rx="2" fill="#3fb950"/>

<text x="20" y="184" fill="#58a6ff" font-size="12.5" font-weight="700">— Contributions</text>
<line x1="112" y1="180" x2="840" y2="180" stroke="#30363d" stroke-opacity=".8"/>
<text x="112" y="203" fill="#7d8590" font-size="9">RECENT ACTIVITY</text>

<text x="164" y="211" fill="#7d8590" font-size="8">FEB</text>
<text x="216" y="211" fill="#7d8590" font-size="8">MAR</text>
<text x="268" y="211" fill="#7d8590" font-size="8">APR</text>
<text x="281" y="211" fill="#7d8590" font-size="8">APR</text>
<text x="320" y="211" fill="#7d8590" font-size="8">MAY</text>
<text x="333" y="211" fill="#7d8590" font-size="8">MAY</text>
<text x="385" y="211" fill="#7d8590" font-size="8">JUN</text>
<text x="398" y="211" fill="#7d8590" font-size="8">JUN</text>
<text x="437" y="211" fill="#7d8590" font-size="8">JUL</text>
<text x="450" y="211" fill="#7d8590" font-size="8">JUL</text>
<text x="489" y="211" fill="#7d8590" font-size="8">AUG</text>
<text x="502" y="211" fill="#7d8590" font-size="8">AUG</text>
<text x="97" y="235" fill="#7d8590" font-size="8">M</text>
<text x="97" y="261" fill="#7d8590" font-size="8">W</text>
<text x="97" y="287" fill="#7d8590" font-size="8">F</text>
<rect x="112" y="214" width="10" height="10" rx="2" fill="#161b22"/>
<rect x="125" y="214" width="10" height="10" rx="2" fill="#161b22"/>
<rect x="138" y="214" width="10" height="10" rx="2" fill="#161b22"/>
<rect x="151" y="214" width="10" height="10" rx="2" fill="#161b22"/>
<rect x="164" y="214" width="10" height="10" rx="2" fill="#161b22"/>
<rect x="177" y="214" width="10" height="10" rx="2" fill="#161b22"/>
<rect x="190" y="214" width="10" height="10" rx="2" fill="#161b22"/>
<rect x="203" y="214" width="10" height="10" rx="2" fill="#161b22"/>
<rect x="216" y="214" width="10" height="10" rx="2" fill="#161b22"/>
<rect x="229" y="214" width="10" height="10" rx="2" fill="#161b22"/>
<rect x="242" y="214" width="10" height="10" rx="2" fill="#161b22"/>
<rect x="255" y="214" width="10" height="10" rx="2" fill="#161b22"/>
<rect x="268" y="214" width="10" height="10" rx="2" fill="#161b22"/>
<rect x="281" y="214" width="10" height="10" rx="2" fill="#0e4429"/>
<rect x="294" y="214" width="10" height="10" rx="2" fill="#161b22"/>
<rect x="307" y="214" width="10" height="10" rx="2" fill="#161b22"/>
<rect x="320" y="214" width="10" height="10" rx="2" fill="#161b22"/>
<rect x="333" y="214" width="10" height="10" rx="2" fill="#161b22"/>
<rect x="346" y="214" width="10" height="10" rx="2" fill="#161b22"/>
<rect x="359" y="214" width="10" height="10" rx="2" fill="#161b22"/>
<rect x="372" y="214" width="10" height="10" rx="2" fill="#161b22"/>
<rect x="385" y="214" width="10" height="10" rx="2" fill="#0e4429"/>
<rect x="398" y="214" width="10" height="10" rx="2" fill="#0e4429"/>
<rect x="411" y="214" width="10" height="10" rx="2" fill="#0e4429"/>
<rect x="424" y="214" width="10" height="10" rx="2" fill="#0e4429"/>
<rect x="437" y="214" width="10" height="10" rx="2" fill="#0e4429"/>
<rect x="450" y="214" width="10" height="10" rx="2" fill="#0e4429"/>
<rect x="463" y="214" width="10" height="10" rx="2" fill="#0e4429"/>
<rect x="476" y="214" width="10" height="10" rx="2" fill="#006d32"/>
<rect x="489" y="214" width="10" height="10" rx="2" fill="#0e4429"/>
<rect x="502" y="214" width="10" height="10" rx="2" fill="#0e4429"/>
<rect x="515" y="214" width="10" height="10" rx="2" fill="#0e4429"/>
<rect x="112" y="227" width="10" height="10" rx="2" fill="#161b22"/>
<rect x="125" y="227" width="10" height="10" rx="2" fill="#161b22"/>
<rect x="138" y="227" width="10" height="10" rx="2" fill="#161b22"/>
<rect x="151" y="227" width="10" height="10" rx="2" fill="#161b22"/>
<rect x="164" y="227" width="10" height="10" rx="2" fill="#161b22"/>
<rect x="177" y="227" width="10" height="10" rx="2" fill="#161b22"/>
<rect x="190" y="227" width="10" height="10" rx="2" fill="#161b22"/>
<rect x="203" y="227" width="10" height="10" rx="2" fill="#161b22"/>
<rect x="216" y="227" width="10" height="10" rx="2" fill="#161b22"/>
<rect x="229" y="227" width="10" height="10" rx="2" fill="#161b22"/>
<rect x="242" y="227" width="10" height="10" rx="2" fill="#161b22"/>
<rect x="255" y="227" width="10" height="10" rx="2" fill="#161b22"/>
<rect x="268" y="227" width="10" height="10" rx="2" fill="#161b22"/>
<rect x="281" y="227" width="10" height="10" rx="2" fill="#0e4429"/>
<rect x="294" y="227" width="10" height="10" rx="2" fill="#161b22"/>
<rect x="307" y="227" width="10" height="10" rx="2" fill="#161b22"/>
<rect x="320" y="227" width="10" height="10" rx="2" fill="#161b22"/>
<rect x="333" y="227" width="10" height="10" rx="2" fill="#161b22"/>
<rect x="346" y="227" width="10" height="10" rx="2" fill="#161b22"/>
<rect x="359" y="227" width="10" height="10" rx="2" fill="#161b22"/>
<rect x="372" y="227" width="10" height="10" rx="2" fill="#161b22"/>
<rect x="385" y="227" width="10" height="10" rx="2" fill="#0e4429"/>
<rect x="398" y="227" width="10" height="10" rx="2" fill="#0e4429"/>
<rect x="411" y="227" width="10" height="10" rx="2" fill="#0e4429"/>
<rect x="424" y="227" width="10" height="10" rx="2" fill="#161b22"/>
<rect x="437" y="227" width="10" height="10" rx="2" fill="#26a641"/>
<rect x="450" y="227" width="10" height="10" rx="2" fill="#26a641"/>
<rect x="463" y="227" width="10" height="10" rx="2" fill="#006d32"/>
<rect x="476" y="227" width="10" height="10" rx="2" fill="#26a641"/>
<rect x="489" y="227" width="10" height="10" rx="2" fill="#006d32"/>
<rect x="502" y="227" width="10" height="10" rx="2" fill="#0e4429"/>
<rect x="515" y="227" width="10" height="10" rx="2" fill="#0e4429"/>
<rect x="112" y="240" width="10" height="10" rx="2" fill="#161b22"/>
<rect x="125" y="240" width="10" height="10" rx="2" fill="#161b22"/>
<rect x="138" y="240" width="10" height="10" rx="2" fill="#161b22"/>
<rect x="151" y="240" width="10" height="10" rx="2" fill="#161b22"/>
<rect x="164" y="240" width="10" height="10" rx="2" fill="#161b22"/>
<rect x="177" y="240" width="10" height="10" rx="2" fill="#161b22"/>
<rect x="190" y="240" width="10" height="10" rx="2" fill="#161b22"/>
<rect x="203" y="240" width="10" height="10" rx="2" fill="#161b22"/>
<rect x="216" y="240" width="10" height="10" rx="2" fill="#161b22"/>
<rect x="229" y="240" width="10" height="10" rx="2" fill="#161b22"/>
<rect x="242" y="240" width="10" height="10" rx="2" fill="#161b22"/>
<rect x="255" y="240" width="10" height="10" rx="2" fill="#161b22"/>
<rect x="268" y="240" width="10" height="10" rx="2" fill="#161b22"/>
<rect x="281" y="240" width="10" height="10" rx="2" fill="#0e4429"/>
<rect x="294" y="240" width="10" height="10" rx="2" fill="#161b22"/>
<rect x="307" y="240" width="10" height="10" rx="2" fill="#161b22"/>
<rect x="320" y="240" width="10" height="10" rx="2" fill="#161b22"/>
<rect x="333" y="240" width="10" height="10" rx="2" fill="#161b22"/>
<rect x="346" y="240" width="10" height="10" rx="2" fill="#161b22"/>
<rect x="359" y="240" width="10" height="10" rx="2" fill="#161b22"/>
<rect x="372" y="240" width="10" height="10" rx="2" fill="#161b22"/>
<rect x="385" y="240" width="10" height="10" rx="2" fill="#0e4429"/>
<rect x="398" y="240" width="10" height="10" rx="2" fill="#0e4429"/>
<rect x="411" y="240" width="10" height="10" rx="2" fill="#0e4429"/>
<rect x="424" y="240" width="10" height="10" rx="2" fill="#161b22"/>
<rect x="437" y="240" width="10" height="10" rx="2" fill="#26a641"/>
<rect x="450" y="240" width="10" height="10" rx="2" fill="#39d353"/>
<rect x="463" y="240" width="10" height="10" rx="2" fill="#39d353"/>
<rect x="476" y="240" width="10" height="10" rx="2" fill="#39d353"/>
<rect x="489" y="240" width="10" height="10" rx="2" fill="#0e4429"/>
<rect x="502" y="240" width="10" height="10" rx="2" fill="#0e4429"/>
<rect x="515" y="240" width="10" height="10" rx="2" fill="#26a641"/>
<rect x="112" y="253" width="10" height="10" rx="2" fill="#161b22"/>
<rect x="125" y="253" width="10" height="10" rx="2" fill="#161b22"/>
<rect x="138" y="253" width="10" height="10" rx="2" fill="#161b22"/>
<rect x="151" y="253" width="10" height="10" rx="2" fill="#161b22"/>
<rect x="164" y="253" width="10" height="10" rx="2" fill="#161b22"/>
<rect x="177" y="253" width="10" height="10" rx="2" fill="#161b22"/>
<rect x="190" y="253" width="10" height="10" rx="2" fill="#161b22"/>
<rect x="203" y="253" width="10" height="10" rx="2" fill="#161b22"/>
<rect x="216" y="253" width="10" height="10" rx="2" fill="#161b22"/>
<rect x="229" y="253" width="10" height="10" rx="2" fill="#161b22"/>
<rect x="242" y="253" width="10" height="10" rx="2" fill="#161b22"/>
<rect x="255" y="253" width="10" height="10" rx="2" fill="#161b22"/>
<rect x="268" y="253" width="10" height="10" rx="2" fill="#161b22"/>
<rect x="281" y="253" width="10" height="10" rx="2" fill="#161b22"/>
<rect x="294" y="253" width="10" height="10" rx="2" fill="#161b22"/>
<rect x="307" y="253" width="10" height="10" rx="2" fill="#161b22"/>
<rect x="320" y="253" width="10" height="10" rx="2" fill="#161b22"/>
<rect x="333" y="253" width="10" height="10" rx="2" fill="#161b22"/>
<rect x="346" y="253" width="10" height="10" rx="2" fill="#161b22"/>
<rect x="359" y="253" width="10" height="10" rx="2" fill="#161b22"/>
<rect x="372" y="253" width="10" height="10" rx="2" fill="#161b22"/>
<rect x="385" y="253" width="10" height="10" rx="2" fill="#161b22"/>
<rect x="398" y="253" width="10" height="10" rx="2" fill="#0e4429"/>
<rect x="411" y="253" width="10" height="10" rx="2" fill="#0e4429"/>
<rect x="424" y="253" width="10" height="10" rx="2" fill="#0e4429"/>
<rect x="437" y="253" width="10" height="10" rx="2" fill="#0e4429"/>
<rect x="450" y="253" width="10" height="10" rx="2" fill="#0e4429"/>
<rect x="463" y="253" width="10" height="10" rx="2" fill="#0e4429"/>
<rect x="476" y="253" width="10" height="10" rx="2" fill="#0e4429"/>
<rect x="489" y="253" width="10" height="10" rx="2" fill="#0e4429"/>
<rect x="502" y="253" width="10" height="10" rx="2" fill="#006d32"/>
<rect x="515" y="253" width="10" height="10" rx="2" fill="#0e4429"/>
<rect x="112" y="266" width="10" height="10" rx="2" fill="#161b22"/>
<rect x="125" y="266" width="10" height="10" rx="2" fill="#161b22"/>
<rect x="138" y="266" width="10" height="10" rx="2" fill="#161b22"/>
<rect x="151" y="266" width="10" height="10" rx="2" fill="#161b22"/>
<rect x="164" y="266" width="10" height="10" rx="2" fill="#161b22"/>
<rect x="177" y="266" width="10" height="10" rx="2" fill="#161b22"/>
<rect x="190" y="266" width="10" height="10" rx="2" fill="#161b22"/>
<rect x="203" y="266" width="10" height="10" rx="2" fill="#161b22"/>
<rect x="216" y="266" width="10" height="10" rx="2" fill="#161b22"/>
<rect x="229" y="266" width="10" height="10" rx="2" fill="#161b22"/>
<rect x="242" y="266" width="10" height="10" rx="2" fill="#161b22"/>
<rect x="255" y="266" width="10" height="10" rx="2" fill="#161b22"/>
<rect x="268" y="266" width="10" height="10" rx="2" fill="#0e4429"/>
<rect x="281" y="266" width="10" height="10" rx="2" fill="#161b22"/>
<rect x="294" y="266" width="10" height="10" rx="2" fill="#161b22"/>
<rect x="307" y="266" width="10" height="10" rx="2" fill="#161b22"/>
<rect x="320" y="266" width="10" height="10" rx="2" fill="#161b22"/>
<rect x="333" y="266" width="10" height="10" rx="2" fill="#161b22"/>
<rect x="346" y="266" width="10" height="10" rx="2" fill="#161b22"/>
<rect x="359" y="266" width="10" height="10" rx="2" fill="#161b22"/>
<rect x="372" y="266" width="10" height="10" rx="2" fill="#161b22"/>
<rect x="385" y="266" width="10" height="10" rx="2" fill="#0e4429"/>
<rect x="398" y="266" width="10" height="10" rx="2" fill="#0e4429"/>
<rect x="411" y="266" width="10" height="10" rx="2" fill="#161b22"/>
<rect x="424" y="266" width="10" height="10" rx="2" fill="#0e4429"/>
<rect x="437" y="266" width="10" height="10" rx="2" fill="#006d32"/>
<rect x="450" y="266" width="10" height="10" rx="2" fill="#0e4429"/>
<rect x="463" y="266" width="10" height="10" rx="2" fill="#0e4429"/>
<rect x="476" y="266" width="10" height="10" rx="2" fill="#0e4429"/>
<rect x="489" y="266" width="10" height="10" rx="2" fill="#006d32"/>
<rect x="502" y="266" width="10" height="10" rx="2" fill="#0e4429"/>
<rect x="515" y="266" width="10" height="10" rx="2" fill="#0e4429"/>
<rect x="112" y="279" width="10" height="10" rx="2" fill="#161b22"/>
<rect x="125" y="279" width="10" height="10" rx="2" fill="#161b22"/>
<rect x="138" y="279" width="10" height="10" rx="2" fill="#161b22"/>
<rect x="151" y="279" width="10" height="10" rx="2" fill="#161b22"/>
<rect x="164" y="279" width="10" height="10" rx="2" fill="#161b22"/>
<rect x="177" y="279" width="10" height="10" rx="2" fill="#161b22"/>
<rect x="190" y="279" width="10" height="10" rx="2" fill="#161b22"/>
<rect x="203" y="279" width="10" height="10" rx="2" fill="#161b22"/>
<rect x="216" y="279" width="10" height="10" rx="2" fill="#161b22"/>
<rect x="229" y="279" width="10" height="10" rx="2" fill="#161b22"/>
<rect x="242" y="279" width="10" height="10" rx="2" fill="#161b22"/>
<rect x="255" y="279" width="10" height="10" rx="2" fill="#161b22"/>
<rect x="268" y="279" width="10" height="10" rx="2" fill="#161b22"/>
<rect x="281" y="279" width="10" height="10" rx="2" fill="#161b22"/>
<rect x="294" y="279" width="10" height="10" rx="2" fill="#161b22"/>
<rect x="307" y="279" width="10" height="10" rx="2" fill="#161b22"/>
<rect x="320" y="279" width="10" height="10" rx="2" fill="#161b22"/>
<rect x="333" y="279" width="10" height="10" rx="2" fill="#161b22"/>
<rect x="346" y="279" width="10" height="10" rx="2" fill="#161b22"/>
<rect x="359" y="279" width="10" height="10" rx="2" fill="#161b22"/>
<rect x="372" y="279" width="10" height="10" rx="2" fill="#161b22"/>
<rect x="385" y="279" width="10" height="10" rx="2" fill="#0e4429"/>
<rect x="398" y="279" width="10" height="10" rx="2" fill="#0e4429"/>
<rect x="411" y="279" width="10" height="10" rx="2" fill="#161b22"/>
<rect x="424" y="279" width="10" height="10" rx="2" fill="#39d353"/>
<rect x="437" y="279" width="10" height="10" rx="2" fill="#39d353"/>
<rect x="450" y="279" width="10" height="10" rx="2" fill="#0e4429"/>
<rect x="463" y="279" width="10" height="10" rx="2" fill="#0e4429"/>
<rect x="476" y="279" width="10" height="10" rx="2" fill="#0e4429"/>
<rect x="489" y="279" width="10" height="10" rx="2" fill="#0e4429"/>
<rect x="502" y="279" width="10" height="10" rx="2" fill="#0e4429"/>
<rect x="515" y="279" width="10" height="10" rx="2" fill="#0e4429"/>
<rect x="112" y="292" width="10" height="10" rx="2" fill="#161b22"/>
<rect x="125" y="292" width="10" height="10" rx="2" fill="#161b22"/>
<rect x="138" y="292" width="10" height="10" rx="2" fill="#161b22"/>
<rect x="151" y="292" width="10" height="10" rx="2" fill="#161b22"/>
<rect x="164" y="292" width="10" height="10" rx="2" fill="#161b22"/>
<rect x="177" y="292" width="10" height="10" rx="2" fill="#161b22"/>
<rect x="190" y="292" width="10" height="10" rx="2" fill="#161b22"/>
<rect x="203" y="292" width="10" height="10" rx="2" fill="#161b22"/>
<rect x="216" y="292" width="10" height="10" rx="2" fill="#161b22"/>
<rect x="229" y="292" width="10" height="10" rx="2" fill="#161b22"/>
<rect x="242" y="292" width="10" height="10" rx="2" fill="#161b22"/>
<rect x="255" y="292" width="10" height="10" rx="2" fill="#161b22"/>
<rect x="268" y="292" width="10" height="10" rx="2" fill="#161b22"/>
<rect x="281" y="292" width="10" height="10" rx="2" fill="#161b22"/>
<rect x="294" y="292" width="10" height="10" rx="2" fill="#161b22"/>
<rect x="307" y="292" width="10" height="10" rx="2" fill="#161b22"/>
<rect x="320" y="292" width="10" height="10" rx="2" fill="#161b22"/>
<rect x="333" y="292" width="10" height="10" rx="2" fill="#161b22"/>
<rect x="346" y="292" width="10" height="10" rx="2" fill="#161b22"/>
<rect x="359" y="292" width="10" height="10" rx="2" fill="#161b22"/>
<rect x="372" y="292" width="10" height="10" rx="2" fill="#0e4429"/>
<rect x="385" y="292" width="10" height="10" rx="2" fill="#0e4429"/>
<rect x="398" y="292" width="10" height="10" rx="2" fill="#161b22"/>
<rect x="411" y="292" width="10" height="10" rx="2" fill="#0e4429"/>
<rect x="424" y="292" width="10" height="10" rx="2" fill="#39d353"/>
<rect x="437" y="292" width="10" height="10" rx="2" fill="#39d353"/>
<rect x="450" y="292" width="10" height="10" rx="2" fill="#26a641"/>
<rect x="463" y="292" width="10" height="10" rx="2" fill="#0e4429"/>
<rect x="476" y="292" width="10" height="10" rx="2" fill="#0e4429"/>
<rect x="489" y="292" width="10" height="10" rx="2" fill="#26a641"/>
<rect x="502" y="292" width="10" height="10" rx="2" fill="#0e4429"/>
<rect x="515" y="292" width="10" height="10" rx="2" fill="#0e4429"/>
<text x="112" y="302" fill="#7d8590" font-size="9">Less</text>
<rect x="142" y="293" width="10" height="10" rx="2" fill="#161b22"/>
<rect x="157" y="293" width="10" height="10" rx="2" fill="#0e4429"/>
<rect x="172" y="293" width="10" height="10" rx="2" fill="#006d32"/>
<rect x="187" y="293" width="10" height="10" rx="2" fill="#26a641"/>
<rect x="202" y="293" width="10" height="10" rx="2" fill="#39d353"/>
<text x="220" y="302" fill="#7d8590" font-size="9">More</text>

<text x="20" y="328" fill="#58a6ff" font-size="12.5" font-weight="700">— Activity</text>
<line x1="92" y1="324" x2="840" y2="324" stroke="#30363d" stroke-opacity=".8"/>

<text x="20" y="351" fill="#ffa657" font-size="12.5" font-weight="700">Total Contributions</text>
<text x="170" y="351" fill="#c9d1d9" font-size="12.5">746</text>
<text x="20" y="373" fill="#ffa657" font-size="12.5" font-weight="700">Active Days</text>
<text x="170" y="373" fill="#c9d1d9" font-size="12.5">81 days this year</text>
</svg>